      <svg width="100%" height="100%" id="svg" viewBox="0 0 1440 590" xmlns="http://www.w3.org/2000/svg" class="transition duration-300 ease-in-out delay-150"><defs><linearGradient id="gradient" x1="0%" y1="50%" x2="100%" y2="50%"><stop offset="5%" stop-color="#8ed1fc"></stop><stop offset="95%" stop-color="#f78da7"></stop></linearGradient></defs><path d="M 0,600 L 0,225 C 53.81339252682207,209.06106794919225 107.62678505364414,193.12213589838453 159,223 C 210.37321494635586,252.87786410161547 259.3062523122456,328.57252435565425 320,353 C 380.6937476877544,377.42747564434575 453.1482056973733,350.58776667899866 500,376 C 546.8517943026267,401.41223332100134 568.1009248982612,479.0764089283512 621,490 C 673.8990751017388,500.9235910716488 758.4480947095819,445.10659760759654 824,439 C 889.5519052904181,432.89340239240346 936.106696263411,476.4972006412628 979,509 C 1021.893303736589,541.5027993587372 1061.1251202367741,562.9045998273524 1106,613 C 1150.8748797632259,663.0954001726476 1201.3928227894933,741.8844000493278 1258,782 C 1314.6071772105067,822.1155999506722 1377.3035886052535,823.5577999753361 1440,825 L 1440,600 L 0,600 Z" stroke="none" stroke-width="0" fill="url(#gradient)" fill-opacity="1" class="transition-all duration-300 ease-in-out delay-150 path-0"></path></svg>
 