<svg width="100%" height="100%" id="svg" viewBox="0 0 1440 590" xmlns="http://www.w3.org/2000/svg" class="transition duration-300 ease-in-out delay-150"><defs><linearGradient id="gradient" x1="0%" y1="50%" x2="100%" y2="50%"><stop offset="5%" stop-color="#8ed1fc"></stop><stop offset="95%" stop-color="#f78da7"></stop></linearGradient></defs><path d="M 0,600 L 0,225 C 39.053298803798256,247.63608336416328 78.10659760759651,270.27216672832657 130,273 C 181.8934023924035,275.72783327167343 246.62690837341222,258.5474164508571 304,302 C 361.3730916265878,345.4525835491429 411.3857688987546,449.5381674682452 464,464 C 516.6142311012454,478.4618325317548 571.8300160315699,403.2999136761623 636,383 C 700.1699839684301,362.7000863238377 773.2941669749662,397.26217782710575 824,437 C 874.7058330250338,476.73782217289425 902.9933160685657,521.6513750154149 948,577 C 993.0066839314343,632.3486249845851 1054.7325687507707,698.1323221112344 1116,752 C 1177.2674312492293,805.8676778887656 1238.0764089283512,847.8193365396473 1292,858 C 1345.9235910716488,868.1806634603527 1392.9617955358244,846.5903317301763 1440,825 L 1440,600 L 0,600 Z" stroke="none" stroke-width="0" fill="url(#gradient)" fill-opacity="1" class="transition-all duration-300 ease-in-out delay-150 path-0" transform="rotate(-180 720 300)"></path></svg>